<?xml version="1.0" standalone="no"?><!DOCTYPE svg PUBLIC "-//W3C//DTD SVG 1.1//EN" "http://www.w3.org/Graphics/SVG/1.1/DTD/svg11.dtd"><svg t="1743584402245" class="icon" viewBox="0 0 1035 1024" version="1.1" xmlns="http://www.w3.org/2000/svg" p-id="24001" width="258.75" height="256" xmlns:xlink="http://www.w3.org/1999/xlink"><path d="M9.972364 0m372.363636 0l279.272727 0q372.363636 0 372.363637 372.363636l0 279.272728q0 372.363636-372.363637 372.363636l-279.272727 0q-372.363636 0-372.363636-372.363636l0-279.272728q0-372.363636 372.363636-372.363636Z" fill="#3271FD" p-id="24002"></path><path d="M801.000727 492.8a223.511273 223.511273 0 0 0-1.221818-20.933818v-0.442182a185.937455 185.937455 0 0 0-1.408-19.2 438.190545 438.190545 0 0 0-5.271273-34.001455 616.436364 616.436364 0 0 0-10.530909-44.741818 226.222545 226.222545 0 0 0-22.144-52.642909 125.114182 125.114182 0 0 0-34.013091-38.702545 172.567273 172.567273 0 0 0-32.872727-19.037091 275.456 275.456 0 0 0-42.123636-15.138909 378.100364 378.100364 0 0 0-64.372364-11.985455c-12.834909-1.221818-25.553455-2.711273-38.388364-3.083636a408.145455 408.145455 0 0 0-20.084363-0.081455c-5.329455-0.104727-10.658909-0.104727-15.988364 0-5.259636 0.081455-10.647273 0.407273-15.918545 0.849455-10.845091 0.535273-21.666909 1.536-32.430546 3.002182-3.723636 0.407273-7.563636 0.849455-11.333818 1.501091-2.711273 0.360727-5.352727 0.814545-8.098909 1.210181a332.299636 332.299636 0 0 0-52.712727 12.392728 230.795636 230.795636 0 0 0-51.351273 22.679272 124.544 124.544 0 0 0-32.674909 27.892364c-8.785455 10.938182-15.790545 23.04-21.701818 35.84a293.154909 293.154909 0 0 0-16.756364 47.36 472.040727 472.040727 0 0 0-13.160727 77.102545c-1.408 16.407273-2.094545 32.884364-2.071273 49.361455 0 3.642182-0.081455 7.249455 0 10.728727 0.360727 12.834909 0.814545 25.786182 2.024727 38.632728 2.432 25.984 6.353455 51.828364 13.160728 77.090909 4.375273 16.197818 9.716364 31.988364 16.756363 47.371636 5.922909 12.8 12.962909 24.866909 21.713455 35.84 9.111273 11.403636 20.282182 20.282182 32.674909 27.857455 16.116364 9.879273 33.442909 17.000727 51.339636 22.667636a329.309091 329.309091 0 0 0 52.712728 12.427636l8.098909 1.221818c3.770182 0.651636 7.493818 1.093818 11.345454 1.501091 10.786909 1.338182 21.620364 2.327273 32.465455 2.955637 5.271273 0.442182 10.612364 0.686545 15.883636 0.884363 5.376 0.116364 10.647273 0.116364 15.988364 0 6.725818 0.116364 13.358545 0.116364 20.084363-0.081454 12.834909-0.360727 25.669818-2.024727 38.388364-3.072a376.157091 376.157091 0 0 0 64.372364-11.985455 250.437818 250.437818 0 0 0 42.123636-15.104 193.140364 193.140364 0 0 0 32.872727-19.083636c14.045091-10.519273 25.227636-23.470545 34.013091-38.749091a230.365091 230.365091 0 0 0 22.144-52.631273c4.049455-14.778182 7.447273-29.672727 10.530909-44.695272 2.304-11.217455 3.723636-22.714182 5.259637-34.013091 0.849455-6.365091 1.210182-12.834909 1.419636-19.2v-0.395637c0.733091-6.981818 1.140364-13.963636 1.210182-20.980363 0-6.353455 0-12.706909-0.116364-19.072 0.116364-6.597818 0.116364-12.951273 0.116364-19.316364h0.046545z m-414.952727 2.443636c37.050182-154.973091 192.977455-95.767273 193.105455-95.767272l10.193454-21.911273c9.518545-15.138909 23.889455-2.432 23.889455-2.432l46.08 76.974545c8.506182 15.790545-10.763636 20.736-10.763637 20.736l-84.549818 18.746182c-30.161455 4.491636-20.805818-17.000727-20.805818-17.000727l10.274909-21.911273c-126.08-46.405818-167.424 42.519273-167.424 42.519273v0.034909z m92.648727 127.744l-9.646545 22.667637c-9.309091 15.918545-23.808 3.2-23.808 3.2l-48.221091-77.986909c-9.029818-15.988364 10.158545-21.457455 10.158545-21.457455l84.352-21.294545c30.033455-5.387636 21.376 17.000727 21.376 17.000727l-9.890909 22.679273c127.674182 44.660364 166.714182-47.581091 166.714182-47.581091-33.128727 159.778909-191.034182 102.772364-191.034182 102.772363z" fill="#FFFFFF" p-id="24003"></path></svg>